[x11grab @ 0x20073a0] device: :0.0+1280+0 -> display: :0.0 x: 1280 y: 0 width: 1920 height: 1080
[x11grab @ 0x20073a0] shared memory extension found
Input #0, x11grab, from ':0.0+1280+0':
  Duration: N/A, start: 1420763833.547361, bitrate: 1327104 kb/s
    Stream #0:0: Video: rawvideo (BGR[0] / 0x524742), bgr0, 1920x1080, 1327104 kb/s, 20 tbr, 1000k tbn, 20 tbc
Guessed Channel Layout for  Input Stream #1.0 : stereo
Input #1, alsa, from 'pulse':
  Duration: N/A, start: 1420763833.585102, bitrate: 1536 kb/s
    Stream #1:0: Audio: pcm_s16le, 48000 Hz, 2 channels, s16, 1536 kb/s
[libx264 @ 0x208b540] using cpu capabilities: MMX2 SSE2Fast SSSE3 SSE4.2 AVX AVX2 FMA3 LZCNT BMI2
[libx264 @ 0x208b540] profile Constrained Baseline, level 4.0
[libx264 @ 0x208b540] 264 - core 142 r2455 021c0dc - H.264/MPEG-4 AVC codec - Copyleft 2003-2014 - http://www.videolan.org/x264.html - options: cabac=0 ref=1 deblock=0:-1:-1 analyse=0:0 me=dia subme=0 psy=1 psy_rd=1.00:0.15 mixed_ref=0 me_range=16 chroma_me=1 trellis=0 8x8dct=0 cqm=0 deadzone=21,11 fast_pskip=1 chroma_qp_offset=0 threads=3 lookahead_threads=1 sliced_threads=0 nr=0 decimate=1 interlaced=0 bluray_compat=0 constrained_intra=0 bframes=0 weightp=0 keyint=40 keyint_min=20 scenecut=0 intra_refresh=0 rc_lookahead=0 rc=cbr mbtree=0 bitrate=1000 ratetol=1.0 qcomp=0.60 qpmin=0 qpmax=69 qpstep=4 vbv_maxrate=1000 vbv_bufsize=1000 nal_hrd=none filler=0 ip_ratio=1.40 aq=0
Output #0, flv, to 'rtmp://live.twitch.tv/app/':
  Metadata:
    encoder         : Lavf56.9.101
    Stream #0:0: Video: h264 (libx264) ([7][0][0][0] / 0x0007), yuv420p, 1600x900, q=-1--1, 1000 kb/s, 20 fps, 1k tbn, 20 tbc
    Metadata:
      encoder         : Lavc56.8.102 libx264
    Stream #0:1: Audio: mp3 (libmp3lame) ([2][0][0][0] / 0x0002), 44100 Hz, stereo, s16p, max. 1000 kb/s
    Metadata:
      encoder         : Lavc56.8.102 libmp3lame
Stream mapping:
  Stream #0:0 -> #0:0 (rawvideo (native) -> h264 (libx264))
  Stream #1:0 -> #0:1 (pcm_s16le (native) -> mp3 (libmp3lame))
Press [q] to stop, [?] for help

